<svg width="35" height="34" viewBox="0 0 35 34" fill="none" xmlns="http://www.w3.org/2000/svg">
<path d="M20.5465 27.4934C20.5465 28.3277 20.2151 29.1278 19.6252 29.7176C19.0353 30.3075 18.2352 30.6389 17.401 30.6389C16.5668 30.6389 15.7667 30.3075 15.1768 29.7176C14.5869 29.1278 14.2555 28.3277 14.2555 27.4934C14.2555 26.6592 14.5869 25.8591 15.1768 25.2692C15.7667 24.6793 16.5668 24.3479 17.401 24.3479C18.2352 24.3479 19.0353 24.6793 19.6252 25.2692C20.2151 25.8591 20.5465 26.6592 20.5465 27.4934ZM20.5465 17.0084C20.5465 17.8427 20.2151 18.6427 19.6252 19.2326C19.0353 19.8225 18.2352 20.1539 17.401 20.1539C16.5668 20.1539 15.7667 19.8225 15.1768 19.2326C14.5869 18.6427 14.2555 17.8427 14.2555 17.0084C14.2555 16.1742 14.5869 15.3741 15.1768 14.7842C15.7667 14.1943 16.5668 13.8629 17.401 13.8629C18.2352 13.8629 19.0353 14.1943 19.6252 14.7842C20.2151 15.3741 20.5465 16.1742 20.5465 17.0084ZM20.5465 6.52343C20.5465 7.35767 20.2151 8.15774 19.6252 8.74764C19.0353 9.33753 18.2352 9.66893 17.401 9.66893C16.5668 9.66893 15.7667 9.33753 15.1768 8.74764C14.5869 8.15774 14.2555 7.35767 14.2555 6.52343C14.2555 5.68919 14.5869 4.88912 15.1768 4.29923C15.7667 3.70933 16.5668 3.37793 17.401 3.37793C18.2352 3.37793 19.0353 3.70933 19.6252 4.29923C20.2151 4.88912 20.5465 5.68919 20.5465 6.52343Z" fill="#9747FF"/>
</svg>
