<svg width="33" height="33" viewBox="0 0 33 33" fill="none" xmlns="http://www.w3.org/2000/svg">
<path d="M19.2718 4.02477C19.7925 4.02472 20.3041 4.16073 20.7561 4.41931C21.208 4.67789 21.5845 5.05006 21.8483 5.49896L22.9294 7.34103H25.6799C26.8244 7.34103 27.9221 7.7956 28.7315 8.60479C29.541 9.41397 29.9959 10.5115 29.9962 11.656V24.273C29.9962 24.8398 29.8846 25.4011 29.6677 25.9248C29.4507 26.4485 29.1328 26.9243 28.732 27.3251C28.3312 27.7259 27.8554 28.0438 27.3317 28.2608C26.808 28.4777 26.2467 28.5893 25.6799 28.5893H7.75053C6.60577 28.5893 5.5079 28.1346 4.69843 27.3251C3.88896 26.5156 3.4342 25.4177 3.4342 24.273V11.656C3.4342 10.5113 3.88896 9.4134 4.69843 8.60393C5.5079 7.79446 6.60577 7.3397 7.75053 7.3397H10.513L11.6751 5.44849C11.9423 5.01316 12.3166 4.6536 12.7623 4.40412C13.208 4.15464 13.7103 4.02357 14.221 4.02344H19.2718V4.02477ZM19.2718 6.01692H14.221C14.0757 6.01703 13.9321 6.04896 13.8004 6.11045C13.6688 6.17193 13.5521 6.26149 13.4587 6.37285L13.3724 6.49238L11.9208 8.8564C11.8318 9.00159 11.707 9.12153 11.5584 9.20477C11.4099 9.28801 11.2424 9.33176 11.0721 9.33186H7.75186C7.44653 9.33168 7.14416 9.39167 6.86203 9.50839C6.57989 9.62511 6.32352 9.79628 6.10756 10.0121C5.8916 10.228 5.72028 10.4842 5.6034 10.7663C5.48652 11.0484 5.42636 11.3507 5.42636 11.656V24.273C5.42636 25.5559 6.46759 26.5972 7.75053 26.5972H25.6799C26.2963 26.5972 26.8875 26.3523 27.3233 25.9164C27.7592 25.4806 28.0041 24.8894 28.0041 24.273V11.656C28.0041 11.0396 27.7592 10.4485 27.3233 10.0126C26.8875 9.57672 26.2963 9.33186 25.6799 9.33186H22.3596C22.186 9.33195 22.0154 9.28665 21.8646 9.20045C21.7139 9.11425 21.5883 8.99016 21.5004 8.84046L20.1298 6.50699C20.0419 6.35748 19.9165 6.23351 19.7661 6.14732C19.6156 6.06114 19.4452 6.01573 19.2718 6.01559V6.01692ZM16.7152 11.324C18.3003 11.324 19.8204 11.9537 20.9412 13.0745C22.062 14.1953 22.6917 15.7154 22.6917 17.3005C22.6917 18.8855 22.062 20.4056 20.9412 21.5264C19.8204 22.6473 18.3003 23.2769 16.7152 23.2769C15.1302 23.2769 13.61 22.6473 12.4892 21.5264C11.3684 20.4056 10.7388 18.8855 10.7388 17.3005C10.7388 15.7154 11.3684 14.1953 12.4892 13.0745C13.61 11.9537 15.1302 11.324 16.7152 11.324ZM16.7152 13.3162C16.192 13.3162 15.6739 13.4192 15.1905 13.6194C14.7071 13.8197 14.2679 14.1132 13.8979 14.4831C13.5279 14.8531 13.2344 15.2923 13.0342 15.7757C12.834 16.2591 12.7309 16.7772 12.7309 17.3005C12.7309 17.8237 12.834 18.3418 13.0342 18.8252C13.2344 19.3086 13.5279 19.7478 13.8979 20.1178C14.2679 20.4878 14.7071 20.7812 15.1905 20.9815C15.6739 21.1817 16.192 21.2848 16.7152 21.2848C17.7719 21.2848 18.7853 20.865 19.5325 20.1178C20.2797 19.3706 20.6995 18.3572 20.6995 17.3005C20.6995 16.2438 20.2797 15.2303 19.5325 14.4831C18.7853 13.7359 17.7719 13.3162 16.7152 13.3162Z" fill="#333333"/>
</svg>
