<svg width="57" height="58" viewBox="0 0 57 58" fill="none" xmlns="http://www.w3.org/2000/svg">
<g filter="url(#filter0_d_1_228)">
<path d="M11.4945 21.7978C11.4945 12.2301 19.2603 4.47388 28.828 4.47388C38.3958 4.47388 46.1615 12.2301 46.1615 21.7978C46.1615 31.3656 38.3958 39.1218 28.828 39.1218C19.2603 39.1218 11.4945 31.3656 11.4945 21.7978Z" fill="url(#paint0_linear_1_228)"/>
<path d="M13.1254 21.7978C13.1254 13.132 20.1598 6.10477 28.828 6.10477C37.4962 6.10477 44.5306 13.132 44.5306 21.7978C44.5306 30.4637 37.4962 37.4909 28.828 37.4909C20.1598 37.4909 13.1254 30.4637 13.1254 21.7978Z" stroke="white" stroke-opacity="0.2" stroke-width="3.26179"/>
<path d="M15.5435 22.0109C15.5435 14.5606 21.5905 8.521 29.0408 8.521C36.4911 8.521 42.5382 14.5606 42.5382 22.0109C42.5382 29.4612 36.4911 35.5008 29.0408 35.5008C21.5905 35.5008 15.5435 29.4612 15.5435 22.0109Z" fill="url(#paint1_linear_1_228)"/>
</g>
<defs>
<filter id="filter0_d_1_228" x="0.737893" y="0.854567" width="56.1613" height="56.1617" filterUnits="userSpaceOnUse" color-interpolation-filters="sRGB">
<feFlood flood-opacity="0" result="BackgroundImageFix"/>
<feColorMatrix in="SourceAlpha" type="matrix" values="0 0 0 0 0 0 0 0 0 0 0 0 0 0 0 0 0 0 127 0" result="hardAlpha"/>
<feOffset dy="7.15781"/>
<feGaussianBlur stdDeviation="5.36836"/>
<feComposite in2="hardAlpha" operator="out"/>
<feColorMatrix type="matrix" values="0 0 0 0 0.917647 0 0 0 0 0.690196 0 0 0 0 0.12549 0 0 0 0.4 0"/>
<feBlend mode="normal" in2="BackgroundImageFix" result="effect1_dropShadow_1_228"/>
<feBlend mode="normal" in="SourceGraphic" in2="effect1_dropShadow_1_228" result="shape"/>
</filter>
<linearGradient id="paint0_linear_1_228" x1="17.5815" y1="7.7185" x2="36.5812" y2="37.6828" gradientUnits="userSpaceOnUse">
<stop stop-color="#FFE092"/>
<stop offset="1" stop-color="#E3A302"/>
</linearGradient>
<linearGradient id="paint1_linear_1_228" x1="20.2833" y1="11.0475" x2="35.0781" y2="34.3803" gradientUnits="userSpaceOnUse">
<stop stop-color="#FFE092"/>
<stop offset="1" stop-color="#E3A302"/>
</linearGradient>
</defs>
</svg>
