<svg width="27" height="27" viewBox="0 0 27 27" fill="none" xmlns="http://www.w3.org/2000/svg">
<path opacity="0.3" d="M20.0419 6.96207C20.6307 6.96207 21.108 6.48475 21.108 5.89595C21.108 5.30715 20.6307 4.82983 20.0419 4.82983C19.4531 4.82983 18.9757 5.30715 18.9757 5.89595C18.9757 6.48475 19.4531 6.96207 20.0419 6.96207Z" fill="black"/>
<path opacity="0.3" d="M7.24797 14.4247C7.83677 14.4247 8.31409 13.9474 8.31409 13.3586C8.31409 12.7698 7.83677 12.2925 7.24797 12.2925C6.65917 12.2925 6.18185 12.7698 6.18185 13.3586C6.18185 13.9474 6.65917 14.4247 7.24797 14.4247Z" fill="black"/>
<path opacity="0.3" d="M20.0419 21.9088C20.6307 21.9088 21.108 21.4315 21.108 20.8427C21.108 20.2539 20.6307 19.7766 20.0419 19.7766C19.4531 19.7766 18.9757 20.2539 18.9757 20.8427C18.9757 21.4315 19.4531 21.9088 20.0419 21.9088Z" fill="black"/>
<path d="M20.0412 17.7087C19.2309 17.7087 18.5059 18.0285 17.9516 18.5296L10.3501 14.1052C10.4034 13.86 10.4461 13.6148 10.4461 13.3589C10.4461 13.1031 10.4034 12.8579 10.3501 12.6127L17.8663 8.23091C18.442 8.76397 19.1989 9.09447 20.0412 9.09447C21.8109 9.09447 23.2395 7.66587 23.2395 5.89611C23.2395 4.12635 21.8109 2.69775 20.0412 2.69775C18.2714 2.69775 16.8428 4.12635 16.8428 5.89611C16.8428 6.15198 16.8854 6.39719 16.9388 6.64239L9.42262 11.0241C8.84691 10.4911 8.08997 10.1606 7.24773 10.1606C5.47798 10.1606 4.04938 11.5892 4.04938 13.3589C4.04938 15.1287 5.47798 16.5573 7.24773 16.5573C8.08997 16.5573 8.84691 16.2268 9.42262 15.6937L17.0134 20.1288C16.9601 20.3527 16.9281 20.5872 16.9281 20.8218C16.9281 22.5382 18.3247 23.9348 20.0412 23.9348C21.7576 23.9348 23.1542 22.5382 23.1542 20.8218C23.1542 19.1053 21.7576 17.7087 20.0412 17.7087ZM20.0412 4.82999C20.6275 4.82999 21.1073 5.30974 21.1073 5.89611C21.1073 6.48248 20.6275 6.96223 20.0412 6.96223C19.4548 6.96223 18.975 6.48248 18.975 5.89611C18.975 5.30974 19.4548 4.82999 20.0412 4.82999ZM7.24773 14.4251C6.66137 14.4251 6.18161 13.9453 6.18161 13.3589C6.18161 12.7726 6.66137 12.2928 7.24773 12.2928C7.8341 12.2928 8.31385 12.7726 8.31385 13.3589C8.31385 13.9453 7.8341 14.4251 7.24773 14.4251ZM20.0412 21.9092C19.4548 21.9092 18.975 21.4295 18.975 20.8431C18.975 20.2567 19.4548 19.777 20.0412 19.777C20.6275 19.777 21.1073 20.2567 21.1073 20.8431C21.1073 21.4295 20.6275 21.9092 20.0412 21.9092Z" fill="white"/>
</svg>
