<svg width="27" height="27" viewBox="0 0 27 27" fill="none" xmlns="http://www.w3.org/2000/svg">
<path opacity="0.3" d="M20.0419 6.96207C20.6307 6.96207 21.108 6.48475 21.108 5.89595C21.108 5.30715 20.6307 4.82983 20.0419 4.82983C19.4531 4.82983 18.9757 5.30715 18.9757 5.89595C18.9757 6.48475 19.4531 6.96207 20.0419 6.96207Z" fill="black"/>
<path opacity="0.3" d="M7.24796 14.4248C7.83676 14.4248 8.31408 13.9475 8.31408 13.3587C8.31408 12.7699 7.83676 12.2925 7.24796 12.2925C6.65916 12.2925 6.18184 12.7699 6.18184 13.3587C6.18184 13.9475 6.65916 14.4248 7.24796 14.4248Z" fill="black"/>
<path opacity="0.3" d="M20.0419 21.9089C20.6307 21.9089 21.108 21.4316 21.108 20.8428C21.108 20.254 20.6307 19.7767 20.0419 19.7767C19.4531 19.7767 18.9757 20.254 18.9757 20.8428C18.9757 21.4316 19.4531 21.9089 20.0419 21.9089Z" fill="black"/>
<path d="M20.0411 17.7086C19.2309 17.7086 18.5059 18.0285 17.9515 18.5296L10.3501 14.1052C10.4034 13.86 10.4461 13.6147 10.4461 13.3589C10.4461 13.103 10.4034 12.8578 10.3501 12.6126L17.8663 8.23085C18.442 8.76391 19.1989 9.0944 20.0411 9.0944C21.8109 9.0944 23.2395 7.66581 23.2395 5.89605C23.2395 4.12629 21.8109 2.69769 20.0411 2.69769C18.2714 2.69769 16.8428 4.12629 16.8428 5.89605C16.8428 6.15192 16.8854 6.39712 16.9387 6.64233L9.4226 11.0241C8.8469 10.491 8.08995 10.1605 7.24772 10.1605C5.47796 10.1605 4.04936 11.5891 4.04936 13.3589C4.04936 15.1286 5.47796 16.5572 7.24772 16.5572C8.08995 16.5572 8.8469 16.2267 9.4226 15.6937L17.0134 20.1287C16.9601 20.3526 16.9281 20.5872 16.9281 20.8217C16.9281 22.5382 18.3247 23.9348 20.0411 23.9348C21.7576 23.9348 23.1542 22.5382 23.1542 20.8217C23.1542 19.1053 21.7576 17.7086 20.0411 17.7086ZM20.0411 4.82993C20.6275 4.82993 21.1073 5.30968 21.1073 5.89605C21.1073 6.48241 20.6275 6.96217 20.0411 6.96217C19.4548 6.96217 18.975 6.48241 18.975 5.89605C18.975 5.30968 19.4548 4.82993 20.0411 4.82993ZM7.24772 14.425C6.66135 14.425 6.1816 13.9452 6.1816 13.3589C6.1816 12.7725 6.66135 12.2928 7.24772 12.2928C7.83408 12.2928 8.31384 12.7725 8.31384 13.3589C8.31384 13.9452 7.83408 14.425 7.24772 14.425ZM20.0411 21.9092C19.4548 21.9092 18.975 21.4294 18.975 20.843C18.975 20.2567 19.4548 19.7769 20.0411 19.7769C20.6275 19.7769 21.1073 20.2567 21.1073 20.843C21.1073 21.4294 20.6275 21.9092 20.0411 21.9092Z" fill="white"/>
</svg>
