<svg width="27" height="27" viewBox="0 0 27 27" fill="none" xmlns="http://www.w3.org/2000/svg">
<path opacity="0.3" d="M20.1664 6.96207C20.7672 6.96207 21.2542 6.48475 21.2542 5.89595C21.2542 5.30715 20.7672 4.82983 20.1664 4.82983C19.5655 4.82983 19.0785 5.30715 19.0785 5.89595C19.0785 6.48475 19.5655 6.96207 20.1664 6.96207Z" fill="black"/>
<path opacity="0.3" d="M7.11144 14.4248C7.71225 14.4248 8.19931 13.9475 8.19931 13.3587C8.19931 12.7699 7.71225 12.2925 7.11144 12.2925C6.51062 12.2925 6.02356 12.7699 6.02356 13.3587C6.02356 13.9475 6.51062 14.4248 7.11144 14.4248Z" fill="black"/>
<path opacity="0.3" d="M20.1664 21.9089C20.7672 21.9089 21.2542 21.4316 21.2542 20.8428C21.2542 20.254 20.7672 19.7767 20.1664 19.7767C19.5655 19.7767 19.0785 20.254 19.0785 20.8428C19.0785 21.4316 19.5655 21.9089 20.1664 21.9089Z" fill="black"/>
<path d="M20.1657 17.7086C19.3389 17.7086 18.5991 18.0285 18.0334 18.5296L10.2769 14.1052C10.3313 13.86 10.3748 13.6147 10.3748 13.3589C10.3748 13.103 10.3313 12.8578 10.2769 12.6126L17.9464 8.23085C18.5339 8.76391 19.3063 9.0944 20.1657 9.0944C21.9715 9.0944 23.4293 7.66581 23.4293 5.89605C23.4293 4.12629 21.9715 2.69769 20.1657 2.69769C18.3598 2.69769 16.902 4.12629 16.902 5.89605C16.902 6.15192 16.9456 6.39712 17 6.64233L9.33043 11.0241C8.74298 10.491 7.97058 10.1605 7.11116 10.1605C5.30529 10.1605 3.84753 11.5891 3.84753 13.3589C3.84753 15.1286 5.30529 16.5572 7.11116 16.5572C7.97058 16.5572 8.74298 16.2267 9.33043 15.6937L17.0761 20.1287C17.0217 20.3526 16.9891 20.5872 16.9891 20.8217C16.9891 22.5382 18.4142 23.9348 20.1657 23.9348C21.9172 23.9348 23.3423 22.5382 23.3423 20.8217C23.3423 19.1053 21.9172 17.7086 20.1657 17.7086ZM20.1657 4.82993C20.764 4.82993 21.2535 5.30968 21.2535 5.89605C21.2535 6.48241 20.764 6.96217 20.1657 6.96217C19.5673 6.96217 19.0778 6.48241 19.0778 5.89605C19.0778 5.30968 19.5673 4.82993 20.1657 4.82993ZM7.11116 14.425C6.51283 14.425 6.02329 13.9452 6.02329 13.3589C6.02329 12.7725 6.51283 12.2928 7.11116 12.2928C7.70949 12.2928 8.19904 12.7725 8.19904 13.3589C8.19904 13.9452 7.70949 14.425 7.11116 14.425ZM20.1657 21.9092C19.5673 21.9092 19.0778 21.4294 19.0778 20.843C19.0778 20.2567 19.5673 19.7769 20.1657 19.7769C20.764 19.7769 21.2535 20.2567 21.2535 20.843C21.2535 21.4294 20.764 21.9092 20.1657 21.9092Z" fill="white"/>
</svg>
