<svg width="33" height="33" viewBox="0 0 33 33" fill="none" xmlns="http://www.w3.org/2000/svg">
<path d="M10.4904 6.15919C10.4904 4.57414 11.12 3.054 12.2408 1.9332C13.3616 0.812399 14.8818 0.182739 16.4668 0.182739C18.0519 0.182739 19.572 0.812399 20.6928 1.9332C21.8136 3.054 22.4433 4.57414 22.4433 6.15919V16.1199C22.4433 17.705 21.8136 19.2251 20.6928 20.3459C19.572 21.4667 18.0519 22.0964 16.4668 22.0964C14.8818 22.0964 13.3616 21.4667 12.2408 20.3459C11.12 19.2251 10.4904 17.705 10.4904 16.1199V6.15919Z" fill="white"/>
<path d="M7.50212 13.1317C7.76629 13.1317 8.01965 13.2367 8.20645 13.4235C8.39325 13.6103 8.49819 13.8636 8.49819 14.1278V16.1199C8.49819 18.2333 9.33774 20.2602 10.8321 21.7546C12.3265 23.249 14.3534 24.0885 16.4668 24.0885C18.5802 24.0885 20.607 23.249 22.1015 21.7546C23.5959 20.2602 24.4354 18.2333 24.4354 16.1199V14.1278C24.4354 13.8636 24.5403 13.6103 24.7271 13.4235C24.9139 13.2367 25.1673 13.1317 25.4315 13.1317C25.6957 13.1317 25.949 13.2367 26.1358 13.4235C26.3226 13.6103 26.4276 13.8636 26.4276 14.1278V16.1199C26.4276 18.5893 25.5104 20.9706 23.8539 22.8019C22.1975 24.6332 19.9198 25.784 17.4629 26.0309V30.065H23.4393C23.7035 30.065 23.9569 30.1699 24.1437 30.3567C24.3305 30.5435 24.4354 30.7969 24.4354 31.0611C24.4354 31.3252 24.3305 31.5786 24.1437 31.7654C23.9569 31.9522 23.7035 32.0571 23.4393 32.0571H9.49427C9.23009 32.0571 8.97674 31.9522 8.78994 31.7654C8.60314 31.5786 8.49819 31.3252 8.49819 31.0611C8.49819 30.7969 8.60314 30.5435 8.78994 30.3567C8.97674 30.1699 9.23009 30.065 9.49427 30.065H15.4707V26.0309C13.0138 25.784 10.7361 24.6332 9.07966 22.8019C7.4232 20.9706 6.50601 18.5893 6.50604 16.1199V14.1278C6.50604 13.8636 6.61099 13.6103 6.79779 13.4235C6.98459 13.2367 7.23794 13.1317 7.50212 13.1317Z" fill="white"/>
</svg>
