<svg width="24" height="24" viewBox="0 0 24 24" fill="none" xmlns="http://www.w3.org/2000/svg">
<path d="M9.79905 2.02599C9.60053 2.01286 9.40493 2.07913 9.25528 2.21022C9.10563 2.34131 9.01418 2.52647 9.00105 2.72499C8.98792 2.9235 9.05419 3.1191 9.18528 3.26876C9.31636 3.41841 9.50153 3.50986 9.70005 3.52299C14.942 3.86799 19.134 8.06099 19.477 13.303C19.4835 13.4013 19.5092 13.4973 19.5528 13.5857C19.5963 13.674 19.6569 13.753 19.7309 13.8179C19.805 13.8829 19.8911 13.9326 19.9844 13.9643C20.0777 13.9959 20.1763 14.0089 20.2745 14.0025C20.3728 13.9961 20.4689 13.9703 20.5573 13.9268C20.6456 13.8832 20.7245 13.8227 20.7895 13.7486C20.8544 13.6746 20.9042 13.5884 20.9358 13.4952C20.9675 13.4019 20.9805 13.3033 20.974 13.205C20.581 7.20999 15.791 2.41999 9.79905 2.02599ZM8.49705 15.622C8.79542 15.622 9.08156 15.5035 9.29254 15.2925C9.50352 15.0815 9.62205 14.7954 9.62205 14.497C9.62205 14.1986 9.50352 13.9125 9.29254 13.7015C9.08156 13.4905 8.79542 13.372 8.49705 13.372C8.19868 13.372 7.91253 13.4905 7.70155 13.7015C7.49057 13.9125 7.37205 14.1986 7.37205 14.497C7.37205 14.7954 7.49057 15.0815 7.70155 15.2925C7.91253 15.5035 8.19868 15.622 8.49705 15.622ZM7.97705 21.772L7.58705 21.386C6.5969 20.4018 5.60724 19.4171 4.61805 18.432C3.84949 17.6633 3.32611 16.684 3.1141 15.6179C2.90209 14.5518 3.01097 13.4468 3.42697 12.4426C3.84297 11.4384 4.54741 10.58 5.4512 9.97617C6.355 9.37229 7.41757 9.04997 8.50455 9.04997C9.59152 9.04997 10.6541 9.37229 11.5579 9.97617C12.4617 10.58 13.1661 11.4384 13.5821 12.4426C13.9981 13.4468 14.107 14.5518 13.895 15.6179C13.683 16.684 13.1596 17.6633 12.391 18.432C11.947 18.876 11.107 19.712 10.379 20.435L9.03305 21.772C8.89255 21.9115 8.70256 21.9898 8.50455 21.9898C8.30653 21.9898 8.11655 21.9115 7.97605 21.772H7.97705ZM5.67805 11.72C4.92871 12.4694 4.50775 13.4857 4.50775 14.5455C4.50775 15.6052 4.92871 16.6216 5.67805 17.371C6.16005 17.853 6.99805 18.687 7.71705 19.401L8.50405 20.183L9.32005 19.371C10.049 18.647 10.887 17.814 11.33 17.371C12.0794 16.6215 12.5004 15.605 12.5003 14.5451C12.5002 13.4853 12.0791 12.4689 11.3295 11.7195C10.58 10.9701 9.56356 10.5492 8.50369 10.5493C7.44383 10.5494 6.42742 10.9705 5.67805 11.72ZM9.81805 5.50299C9.61993 5.48509 9.42282 5.54662 9.27007 5.67405C9.11732 5.80148 9.02145 5.98437 9.00355 6.18249C8.98565 6.38061 9.04718 6.57772 9.17461 6.73047C9.30204 6.88322 9.48493 6.97909 9.68305 6.99699C11.3081 7.14611 12.8298 7.85937 13.984 9.01303C15.1382 10.1667 15.8522 11.688 16.002 13.313C16.02 13.5111 16.1158 13.694 16.2686 13.8214C16.4213 13.9489 16.6184 14.0104 16.8165 13.9925C17.0147 13.9746 17.1976 13.8787 17.325 13.726C17.4524 13.5732 17.514 13.3761 17.496 13.178C17.3145 11.203 16.4471 9.35402 15.0443 7.95199C13.6416 6.54997 11.7931 5.68348 9.81805 5.50299Z" fill="white"/>
</svg>
