<svg width="37" height="37" viewBox="0 0 37 37" fill="none" xmlns="http://www.w3.org/2000/svg">
<path d="M14.2653 13.5473C13.9664 13.5473 13.6797 13.666 13.4683 13.8774C13.2569 14.0888 13.1382 14.3755 13.1382 14.6744C13.1382 14.9733 13.0194 15.26 12.808 15.4714C12.5966 15.6828 12.3099 15.8015 12.011 15.8015C11.7121 15.8015 11.4254 15.6828 11.214 15.4714C11.0026 15.26 10.8839 14.9733 10.8839 14.6744C10.8839 13.7776 11.2401 12.9175 11.8743 12.2834C12.5084 11.6492 13.3685 11.293 14.2653 11.293C15.1621 11.293 16.0222 11.6492 16.6563 12.2834C17.2904 12.9175 17.6467 13.7776 17.6467 14.6744C17.6467 14.9733 17.528 15.26 17.3166 15.4714C17.1052 15.6828 16.8185 15.8015 16.5196 15.8015C16.2206 15.8015 15.9339 15.6828 15.7226 15.4714C15.5112 15.26 15.3924 14.9733 15.3924 14.6744C15.3924 14.3755 15.2737 14.0888 15.0623 13.8774C14.8509 13.666 14.5642 13.5473 14.2653 13.5473ZM23.2824 13.5473C22.9835 13.5473 22.6968 13.666 22.4854 13.8774C22.274 14.0888 22.1553 14.3755 22.1553 14.6744C22.1553 14.9733 22.0365 15.26 21.8251 15.4714C21.6137 15.6828 21.3271 15.8015 21.0281 15.8015C20.7292 15.8015 20.4425 15.6828 20.2311 15.4714C20.0197 15.26 19.901 14.9733 19.901 14.6744C19.901 13.7776 20.2572 12.9175 20.8914 12.2834C21.5255 11.6492 22.3856 11.293 23.2824 11.293C24.1792 11.293 25.0393 11.6492 25.6734 12.2834C26.3076 12.9175 26.6638 13.7776 26.6638 14.6744C26.6638 14.9733 26.5451 15.26 26.3337 15.4714C26.1223 15.6828 25.8356 15.8015 25.5367 15.8015C25.2377 15.8015 24.951 15.6828 24.7397 15.4714C24.5283 15.26 24.4095 14.9733 24.4095 14.6744C24.4095 14.3755 24.2908 14.0888 24.0794 13.8774C23.868 13.666 23.5813 13.5473 23.2824 13.5473ZM10.9628 18.0558C10.8014 18.0558 10.642 18.0905 10.4952 18.1574C10.3484 18.2244 10.2177 18.3221 10.1119 18.4439C10.0061 18.5657 9.92773 18.7088 9.88201 18.8635C9.83629 19.0183 9.82432 19.181 9.84691 19.3407C10.1532 21.4901 11.2247 23.4569 12.8646 24.8797C14.5045 26.3025 16.6027 27.0858 18.7738 27.0858C20.9449 27.0858 23.0432 26.3025 24.6831 24.8797C26.323 23.4569 27.3945 21.4901 27.7008 19.3407C27.7234 19.1808 27.7114 19.0179 27.6655 18.863C27.6197 18.7081 27.5411 18.5649 27.435 18.443C27.329 18.3212 27.198 18.2236 27.0509 18.1567C26.9039 18.0899 26.7442 18.0555 26.5827 18.0558H10.9628ZM18.7738 24.8186C17.3749 24.8187 16.0103 24.3852 14.8678 23.5778C13.7253 22.7704 12.8612 21.6288 12.3942 20.3101H25.1534C24.6865 21.6288 23.8223 22.7704 22.6799 23.5778C21.5374 24.3852 20.1728 24.8187 18.7738 24.8186ZM32.2995 18.0558C32.2995 16.2796 31.9496 14.5208 31.2699 12.8798C30.5902 11.2388 29.5939 9.7477 28.3379 8.49172C27.0819 7.23575 25.5909 6.23946 23.9499 5.55973C22.3089 4.88 20.5501 4.53015 18.7738 4.53015C16.9976 4.53015 15.2388 4.88 13.5978 5.55973C11.9568 6.23946 10.4657 7.23575 9.20976 8.49172C7.95378 9.7477 6.95749 11.2388 6.27776 12.8798C5.59804 14.5208 5.24818 16.2796 5.24818 18.0558C5.24818 21.643 6.6732 25.0833 9.20976 27.6199C11.7463 30.1564 15.1866 31.5815 18.7738 31.5815C22.3611 31.5815 25.8014 30.1564 28.3379 27.6199C30.8745 25.0833 32.2995 21.643 32.2995 18.0558ZM7.50246 18.0558C7.50246 15.0665 8.68998 12.1995 10.8038 10.0857C12.9176 7.97194 15.7845 6.78443 18.7738 6.78443C21.7632 6.78443 24.6301 7.97194 26.7439 10.0857C28.8577 12.1995 30.0452 15.0665 30.0452 18.0558C30.0452 21.0452 28.8577 23.9121 26.7439 26.0259C24.6301 28.1397 21.7632 29.3272 18.7738 29.3272C15.7845 29.3272 12.9176 28.1397 10.8038 26.0259C8.68998 23.9121 7.50246 21.0452 7.50246 18.0558Z" fill="#333333"/>
</svg>
