<svg width="27" height="27" viewBox="0 0 27 27" fill="none" xmlns="http://www.w3.org/2000/svg">
<path opacity="0.3" d="M20.0418 6.96207C20.6306 6.96207 21.1079 6.48475 21.1079 5.89595C21.1079 5.30715 20.6306 4.82983 20.0418 4.82983C19.453 4.82983 18.9757 5.30715 18.9757 5.89595C18.9757 6.48475 19.453 6.96207 20.0418 6.96207Z" fill="black"/>
<path opacity="0.3" d="M7.248 14.4248C7.8368 14.4248 8.31412 13.9475 8.31412 13.3587C8.31412 12.7699 7.8368 12.2925 7.248 12.2925C6.6592 12.2925 6.18188 12.7699 6.18188 13.3587C6.18188 13.9475 6.6592 14.4248 7.248 14.4248Z" fill="black"/>
<path opacity="0.3" d="M20.0418 21.9089C20.6306 21.9089 21.1079 21.4316 21.1079 20.8428C21.1079 20.254 20.6306 19.7767 20.0418 19.7767C19.453 19.7767 18.9757 20.254 18.9757 20.8428C18.9757 21.4316 19.453 21.9089 20.0418 21.9089Z" fill="black"/>
<path d="M20.0411 17.7086C19.2308 17.7086 18.5059 18.0285 17.9515 18.5296L10.3501 14.1052C10.4034 13.86 10.446 13.6147 10.446 13.3589C10.446 13.103 10.4034 12.8578 10.3501 12.6126L17.8662 8.23085C18.4419 8.76391 19.1989 9.0944 20.0411 9.0944C21.8109 9.0944 23.2395 7.66581 23.2395 5.89605C23.2395 4.12629 21.8109 2.69769 20.0411 2.69769C18.2713 2.69769 16.8427 4.12629 16.8427 5.89605C16.8427 6.15192 16.8854 6.39712 16.9387 6.64233L9.42255 11.0241C8.84685 10.491 8.08991 10.1605 7.24767 10.1605C5.47792 10.1605 4.04932 11.5891 4.04932 13.3589C4.04932 15.1286 5.47792 16.5572 7.24767 16.5572C8.08991 16.5572 8.84685 16.2267 9.42255 15.6937L17.0133 20.1287C16.96 20.3526 16.928 20.5872 16.928 20.8217C16.928 22.5382 18.3246 23.9348 20.0411 23.9348C21.7575 23.9348 23.1542 22.5382 23.1542 20.8217C23.1542 19.1053 21.7575 17.7086 20.0411 17.7086ZM20.0411 4.82993C20.6275 4.82993 21.1072 5.30968 21.1072 5.89605C21.1072 6.48241 20.6275 6.96217 20.0411 6.96217C19.4547 6.96217 18.975 6.48241 18.975 5.89605C18.975 5.30968 19.4547 4.82993 20.0411 4.82993ZM7.24767 14.425C6.66131 14.425 6.18155 13.9452 6.18155 13.3589C6.18155 12.7725 6.66131 12.2928 7.24767 12.2928C7.83404 12.2928 8.31379 12.7725 8.31379 13.3589C8.31379 13.9452 7.83404 14.425 7.24767 14.425ZM20.0411 21.9092C19.4547 21.9092 18.975 21.4294 18.975 20.843C18.975 20.2567 19.4547 19.7769 20.0411 19.7769C20.6275 19.7769 21.1072 20.2567 21.1072 20.843C21.1072 21.4294 20.6275 21.9092 20.0411 21.9092Z" fill="white"/>
</svg>
