<svg width="24" height="24" viewBox="0 0 24 24" fill="none" xmlns="http://www.w3.org/2000/svg">
<path d="M12 12.5C11.337 12.5 10.7011 12.2366 10.2322 11.7678C9.76339 11.2989 9.5 10.663 9.5 10C9.5 9.33696 9.76339 8.70107 10.2322 8.23223C10.7011 7.76339 11.337 7.5 12 7.5C12.663 7.5 13.2989 7.76339 13.7678 8.23223C14.2366 8.70107 14.5 9.33696 14.5 10C14.5 10.3283 14.4353 10.6534 14.3097 10.9567C14.1841 11.26 13.9999 11.5356 13.7678 11.7678C13.5356 11.9999 13.26 12.1841 12.9567 12.3097C12.6534 12.4353 12.3283 12.5 12 12.5ZM12 3C10.1435 3 8.36301 3.7375 7.05025 5.05025C5.7375 6.36301 5 8.14348 5 10C5 15.25 12 23 12 23C12 23 19 15.25 19 10C19 8.14348 18.2625 6.36301 16.9497 5.05025C15.637 3.7375 13.8565 3 12 3Z" fill="white"/>
</svg>
